<svg width="100" height="59" viewBox="0 0 100 59" fill="none" xmlns="http://www.w3.org/2000/svg">
<g id="Group 230">
<g id="Vector" filter="url(#filter0_d_153_492)">
<path d="M34.6897 2.59173C34.675 2.60148 34.4645 2.61609 34.2148 2.62584C33.6077 2.6502 32.9713 2.68919 32.7314 2.71843C32.6237 2.73304 32.4132 2.75253 32.2663 2.76715C31.8697 2.80126 31.3655 2.86461 31.0668 2.91334C30.9053 2.94258 30.5968 2.98643 30.4059 3.00592C30.3374 3.01079 30.2394 3.03516 30.1807 3.04977C30.1268 3.06926 29.9751 3.09363 29.8527 3.10337C29.7303 3.11312 29.603 3.13749 29.5687 3.16185C29.5393 3.18134 29.4512 3.20083 29.3827 3.2057C29.3141 3.21058 29.2015 3.23007 29.133 3.24469C29.0644 3.26418 28.9567 3.28854 28.8882 3.29829C28.8197 3.31291 28.712 3.33727 28.6434 3.35189C28.5749 3.37138 28.477 3.39087 28.4231 3.40062C28.3252 3.42011 28.2713 3.43473 28.0559 3.48833C27.9874 3.50782 27.8797 3.53218 27.8111 3.54193C27.5761 3.58578 27.4684 3.61502 27.4195 3.64426C27.395 3.65887 27.3264 3.68324 27.2726 3.69786C27.1208 3.7271 27.018 3.75633 26.8369 3.80993C26.7438 3.83917 26.6557 3.84892 26.6312 3.83917C26.6117 3.82455 26.5774 3.83917 26.5627 3.86841C26.5431 3.89277 26.4991 3.90739 26.4599 3.89277C26.4256 3.87815 26.3816 3.8879 26.3669 3.91226C26.3424 3.95124 25.985 4.06819 25.9018 4.06819C25.8871 4.06819 25.8381 4.08768 25.7892 4.11692C25.7402 4.14128 25.657 4.17052 25.6031 4.18514C25.5542 4.19489 25.4611 4.21925 25.4024 4.23387C25.3388 4.24849 25.2702 4.2631 25.2408 4.27285C25.2164 4.27772 25.1429 4.31183 25.0793 4.34594C25.0156 4.38005 24.9226 4.41416 24.8688 4.42878C24.8198 4.43853 24.7317 4.45802 24.6729 4.47263C24.6142 4.48238 24.5407 4.51649 24.5065 4.54573C24.4722 4.57497 24.389 4.60907 24.3302 4.6237C24.2666 4.63831 24.1931 4.65293 24.1638 4.66268C24.1393 4.66755 24.0658 4.70166 24.0071 4.73089C23.9435 4.765 23.8945 4.77962 23.8945 4.765C23.8945 4.74551 23.8162 4.77962 23.7231 4.83809C23.6301 4.89657 23.5518 4.92581 23.5518 4.91119C23.5518 4.8917 23.4979 4.91119 23.4294 4.95504C23.3609 4.9989 23.307 5.02327 23.307 5.00377C23.307 4.98915 23.2287 5.02326 23.1356 5.08173C23.0426 5.14021 22.9643 5.17432 22.9643 5.1597C22.9643 5.14021 22.9104 5.16457 22.8419 5.20843C22.7734 5.25229 22.7195 5.27177 22.7195 5.25716C22.7195 5.23766 22.6656 5.26203 22.5971 5.30589C22.5286 5.34974 22.4747 5.36923 22.4747 5.35461C22.4747 5.34 22.3866 5.37898 22.2789 5.4472C22.1712 5.51542 22.083 5.55927 22.083 5.54465C22.083 5.53003 22.0341 5.54465 21.9753 5.57876C21.9117 5.61287 21.8529 5.64211 21.8383 5.64211C21.8236 5.64211 21.7354 5.68596 21.6424 5.73956C21.5494 5.79316 21.4613 5.83702 21.4466 5.83702C21.4319 5.83702 21.3683 5.87113 21.2997 5.91011C21.2312 5.9491 21.1675 5.9832 21.1528 5.98808C21.0598 6.00757 20.7122 6.18299 20.6045 6.26096C20.5262 6.31456 20.4674 6.33892 20.4674 6.3243C20.4674 6.30968 20.4038 6.33892 20.3206 6.3974C20.2422 6.45587 20.1737 6.48997 20.1737 6.47048C20.1737 6.45586 20.0758 6.50946 19.9583 6.5923C19.8359 6.67027 19.7233 6.73849 19.7086 6.73849C19.689 6.73849 19.6107 6.78234 19.5323 6.84082C19.454 6.89442 19.3904 6.92853 19.3904 6.90904C19.3904 6.89442 19.312 6.93827 19.219 7.01136C19.126 7.07959 19.0477 7.12344 19.0477 7.10882C19.0477 7.08933 18.9253 7.16729 18.7784 7.2745C18.6315 7.3817 18.5091 7.45967 18.5091 7.44505C18.5091 7.43043 18.4259 7.47916 18.328 7.55225C18.2301 7.62534 18.1419 7.68382 18.1321 7.67407C18.1224 7.66919 17.9951 7.75203 17.8482 7.85923C17.7013 7.96643 17.5691 8.05415 17.5495 8.05415C17.5349 8.05415 17.432 8.12237 17.3292 8.20521C17.2264 8.28804 17.1383 8.34164 17.1383 8.32215C17.1383 8.30266 17.0306 8.38063 16.8935 8.4927C16.7613 8.60477 16.6487 8.68274 16.6487 8.66325C16.6487 8.64376 16.4725 8.77533 16.262 8.95074C16.0514 9.12617 15.8605 9.27235 15.8409 9.27235C15.8213 9.27235 15.6647 9.39417 15.4933 9.54523C15.322 9.69628 15.18 9.80349 15.18 9.78399C15.18 9.7645 14.9842 9.92043 14.7394 10.1348C14.4995 10.3444 14.1323 10.6562 13.9267 10.8316C13.4762 11.2166 10.8717 13.843 10.8717 13.9113C10.8717 13.9405 10.715 14.1305 10.529 14.3401C10.338 14.5496 10.1863 14.7348 10.1863 14.7543C10.1863 14.7689 10.0198 14.9784 9.81909 15.2172C9.61836 15.4559 9.45191 15.6606 9.45191 15.6752C9.45191 15.6947 9.36868 15.8165 9.27076 15.9481C8.97702 16.3233 8.6441 16.7862 8.62452 16.8447C8.61473 16.8739 8.54129 16.9763 8.46785 17.0737C8.38952 17.1712 8.32587 17.2638 8.32587 17.2832C8.32587 17.2979 8.19369 17.5074 8.03213 17.7462C7.87057 17.9898 7.73838 18.1945 7.73838 18.2042C7.73838 18.2188 7.65026 18.3748 7.53765 18.555C7.42994 18.7353 7.29776 18.9595 7.2439 19.0472C7.19495 19.1398 7.10193 19.2957 7.04807 19.3932C6.77391 19.8707 6.25985 20.8648 6.04933 21.3325C5.97589 21.4934 5.8535 21.7565 5.78006 21.9173C5.45694 22.5995 5.11424 23.4766 4.70788 24.6461C3.83643 27.1458 3.27831 29.7917 3.03842 32.5644C2.96988 33.3489 2.99925 37.7442 3.07759 38.4605C3.15592 39.1621 3.21956 39.6543 3.30769 40.1903C3.35175 40.4583 3.4056 40.7994 3.43008 40.9456C3.44967 41.0918 3.50842 41.389 3.55248 41.6034C3.60144 41.8178 3.65529 42.0858 3.67977 42.1979C3.763 42.5975 3.81685 42.8216 3.8707 43.0409C3.90008 43.1627 3.94414 43.3381 3.96862 43.4307C3.9931 43.5233 4.05674 43.7523 4.1106 43.9424C4.16445 44.1275 4.24278 44.415 4.29174 44.5758C4.3358 44.7366 4.41903 44.9998 4.47289 45.1606C4.52674 45.3214 4.58549 45.5163 4.60507 45.5991C4.62955 45.6771 4.70299 45.8964 4.77643 46.0864C4.84986 46.2716 4.9282 46.4908 4.95267 46.5737C4.97715 46.6516 5.01632 46.7637 5.0408 46.8173C5.17788 47.1146 5.53527 48.0307 5.53527 48.0794C5.53527 48.1135 5.55975 48.1622 5.58913 48.1915C5.6234 48.2256 5.68704 48.3669 5.7409 48.5082C5.78985 48.6495 5.8535 48.7762 5.87798 48.7811C5.90735 48.7908 5.92694 48.8249 5.92694 48.859C5.92694 48.9565 6.65151 50.4378 6.72005 50.4768C6.73964 50.4914 6.75922 50.545 6.75922 50.5986C6.75922 50.6474 6.77391 50.6912 6.79839 50.6912C6.81797 50.6912 6.85714 50.7399 6.88651 50.8033C6.99422 51.0274 7.22432 51.4465 7.2537 51.4709C7.27328 51.4855 7.33693 51.5927 7.39567 51.7145C7.45442 51.8363 7.51807 51.9435 7.53765 51.9581C7.55234 51.9728 7.6013 52.0458 7.64046 52.1287C7.67963 52.2066 7.72369 52.2846 7.73838 52.2992C7.78734 52.348 7.89015 52.5185 7.91463 52.6013C7.93421 52.6501 7.96359 52.6891 7.98806 52.6891C8.01254 52.6891 8.03213 52.7134 8.03213 52.7427C8.03213 52.7719 8.16431 52.9766 8.32587 53.2056C8.48744 53.4297 8.61962 53.6295 8.61962 53.6441C8.61962 53.6587 8.649 53.7026 8.67837 53.7367C8.77629 53.8439 8.83014 53.917 8.98681 54.1509C9.07004 54.2727 9.15326 54.3897 9.17285 54.4189C9.2218 54.4822 9.6918 55.1108 9.81909 55.2911C9.87295 55.3642 9.97576 55.4958 10.0443 55.5738C10.1177 55.6566 10.1961 55.7443 10.2157 55.7784C10.4017 56.0074 10.671 56.3339 10.7738 56.4411C10.8423 56.5093 11.0088 56.6945 11.141 56.8504C11.7627 57.5765 12.4775 58.3074 12.5412 58.283C12.6195 58.2538 58.9386 12.2155 58.9435 12.1571C58.9435 12.1278 58.9288 12.0986 58.8994 12.0986C58.8749 12.0986 58.6301 11.8842 58.3609 11.621C57.7636 11.0412 57.1908 10.5198 57.132 10.5003C57.088 10.4808 56.8138 10.2469 56.5152 9.96429C56.4221 9.88145 56.3242 9.80836 56.2997 9.80836C56.2802 9.80836 56.192 9.74988 56.1088 9.67192C55.7269 9.33082 55.6682 9.27722 55.6682 9.30159C55.6682 9.3162 55.6094 9.26748 55.536 9.19926C55.4626 9.13104 55.3842 9.07744 55.3646 9.07744C55.3402 9.07744 55.2814 9.03846 55.2325 8.98973C55.1052 8.87766 55.0513 8.83867 54.7869 8.66325C54.547 8.50245 54.5226 8.48783 54.3512 8.34652C54.2876 8.29292 54.2043 8.24906 54.1652 8.24906C54.1309 8.24906 54.0868 8.21495 54.0722 8.17597C54.0526 8.13699 54.0183 8.10288 53.984 8.10288C53.9547 8.10288 53.891 8.05902 53.842 8.00542C53.798 7.95182 53.7294 7.90796 53.6952 7.90796C53.6315 7.90796 53.4896 7.81538 53.3231 7.66433C53.279 7.62534 53.1664 7.55225 53.0734 7.50352C52.7111 7.31348 52.5691 7.23064 52.5398 7.18679C52.5251 7.16242 52.4614 7.12831 52.4027 7.10882C52.339 7.08933 52.2607 7.04548 52.2264 7.00649C52.1628 6.94802 51.9719 6.84082 51.4725 6.5923C51.355 6.5387 51.262 6.47049 51.262 6.44612C51.262 6.42176 51.2277 6.41201 51.1885 6.42663C51.1494 6.44612 51.1151 6.43637 51.1151 6.40714C51.1151 6.38277 51.0221 6.3243 50.9095 6.27557C50.792 6.23172 50.6451 6.15863 50.5766 6.11477C50.508 6.07092 50.2926 5.96371 50.0968 5.88087C49.896 5.79804 49.6953 5.69571 49.6513 5.65673C49.6072 5.61774 49.5435 5.59338 49.5093 5.608C49.475 5.61775 49.4505 5.60313 49.4505 5.56902C49.4505 5.53978 49.4309 5.52516 49.4065 5.53978C49.382 5.55927 49.3526 5.54953 49.3428 5.53004C49.3232 5.48131 47.267 4.62857 47.1691 4.62857C47.1299 4.62857 47.1005 4.61395 47.1005 4.59446C47.1005 4.57983 47.0516 4.56034 46.9928 4.56034C46.9292 4.55547 46.6893 4.46776 46.4494 4.3703C46.2144 4.27285 46.0088 4.20463 45.9941 4.21925C45.9794 4.23387 45.8423 4.19001 45.6906 4.1218C45.5388 4.05357 45.3625 3.99997 45.3038 3.99997C45.2401 3.99997 45.2059 3.98048 45.2206 3.95612C45.2352 3.93175 45.2108 3.92688 45.1716 3.9415C45.1324 3.95612 45.0394 3.93663 44.9611 3.90252C44.8876 3.86354 44.7897 3.8343 44.7506 3.83917C44.7114 3.83917 44.5792 3.80506 44.4617 3.75634C44.3442 3.70761 44.2365 3.67837 44.2218 3.68811C44.212 3.70273 44.119 3.68324 44.0211 3.64426C43.8644 3.58578 43.5952 3.52243 43.3797 3.4932C43.3406 3.48833 43.2476 3.46397 43.179 3.43473C43.1056 3.40549 43.0321 3.39574 43.0175 3.41036C43.0028 3.42985 42.9881 3.42011 42.9881 3.39575C42.9881 3.37138 42.9391 3.34702 42.8804 3.34702C42.6992 3.3324 42.4495 3.28367 42.3957 3.24956C42.3663 3.23494 42.2733 3.21058 42.1901 3.20083C42.0383 3.18621 41.9159 3.16673 41.6662 3.118C41.5977 3.10338 41.4361 3.07901 41.299 3.05952C41.1668 3.0449 41.0102 3.01567 40.9563 3.00105C40.8535 2.96694 40.8192 2.96207 40.4423 2.91821C40.3199 2.90359 40.1436 2.87923 40.0506 2.86461C39.8499 2.83537 39.6002 2.81101 39.2183 2.77203C39.0714 2.75741 38.8511 2.73304 38.7287 2.71843C38.6063 2.69893 38.3322 2.67944 38.1168 2.66482C37.9014 2.65508 37.5146 2.63559 37.26 2.62097C36.6627 2.58686 34.7142 2.56737 34.6897 2.59173Z" fill="url(#paint0_linear_153_492)"/>
</g>
<g id="Vector_2" filter="url(#filter1_d_153_492)">
<path d="M64.1725 25.6154C51.4385 38.2847 41.0154 48.6832 41.0154 48.7173C41.0154 48.7856 41.642 49.4142 42.2883 49.9989C42.4841 50.1743 42.6702 50.3449 42.7044 50.3741C42.7436 50.4082 42.7828 50.4374 42.7974 50.4374C42.8121 50.4374 42.8856 50.491 42.959 50.5593C43.4045 50.9588 43.5171 51.0514 43.7913 51.2561C43.9626 51.3779 44.0997 51.4948 44.0997 51.5192C44.0997 51.5387 44.134 51.5582 44.1732 51.5582C44.2074 51.5582 44.2613 51.5874 44.2809 51.6215C44.32 51.68 44.4571 51.7921 44.6872 51.948C44.746 51.987 44.839 52.0601 44.8928 52.1088C44.9516 52.1527 45.0152 52.1917 45.0397 52.1917C45.0593 52.1917 45.1229 52.2306 45.1719 52.2794C45.2992 52.3914 45.3531 52.4304 45.6174 52.6058C45.7398 52.6838 45.8671 52.7764 45.9014 52.8105C45.9308 52.8397 46.0042 52.8836 46.058 52.8982C46.1119 52.9128 46.156 52.9518 46.156 52.9762C46.156 53.0005 46.1902 53.02 46.2294 53.02C46.2686 53.02 46.342 53.059 46.391 53.1029C46.435 53.1516 46.5378 53.2198 46.6113 53.2491C46.6847 53.2832 46.7728 53.3319 46.8071 53.3611C46.9246 53.4635 47.2379 53.6535 47.282 53.6535C47.3065 53.6535 47.3456 53.6925 47.375 53.7412C47.3995 53.7851 47.4289 53.8143 47.4387 53.8046C47.4533 53.7851 47.703 53.9118 48.1094 54.1505C48.2318 54.2236 48.457 54.3357 48.6039 54.4088C48.7507 54.477 48.8829 54.555 48.8976 54.5745C48.9123 54.5988 49.0641 54.6768 49.2403 54.7499C49.4166 54.823 49.6124 54.9204 49.6809 54.9643C49.7495 55.013 49.9257 55.1007 50.0726 55.1592C50.6699 55.4126 50.807 55.4759 50.807 55.5149C50.807 55.5393 50.8314 55.5441 50.8559 55.5295C50.8853 55.5149 50.9049 55.5198 50.9049 55.549C50.9049 55.5783 50.9391 55.588 50.9783 55.5734C51.0175 55.5539 51.0518 55.5685 51.0518 55.6026C51.0518 55.6319 51.0713 55.6465 51.0958 55.6319C51.1203 55.6124 51.1497 55.627 51.1595 55.6513C51.1693 55.6806 51.2231 55.7098 51.2867 55.7147C51.3455 55.7147 51.3945 55.7342 51.3945 55.7537C51.3945 55.7878 51.8253 55.9583 51.9183 55.9583C51.9526 55.9583 51.982 55.9778 51.982 56.0022C51.982 56.0265 52.0064 56.0314 52.0309 56.0168C52.0603 56.0022 52.0799 56.0119 52.0799 56.0412C52.0799 56.0753 52.1141 56.0899 52.1533 56.0704C52.1925 56.0558 52.2267 56.0655 52.2267 56.0948C52.2267 56.124 52.2512 56.1289 52.2757 56.1143C52.3051 56.0996 52.3247 56.1094 52.3247 56.1386C52.3247 56.1679 52.3442 56.1825 52.3687 56.1679C52.3932 56.1532 52.6625 56.241 52.966 56.3628C53.2744 56.4846 53.5633 56.5869 53.6123 56.5869C53.6661 56.582 53.8277 56.6357 53.9794 56.7039C54.1312 56.7672 54.3221 56.8306 54.4054 56.8452C54.4886 56.8549 54.6355 56.8939 54.7285 56.9329C54.9096 57.0109 55.2523 57.1034 55.4727 57.1375C55.5461 57.1522 55.6489 57.1814 55.7028 57.2106C55.7517 57.235 55.8741 57.2691 55.9671 57.2789C56.065 57.2935 56.1874 57.3276 56.2462 57.3568C56.3 57.3909 56.3588 57.4007 56.3735 57.3861C56.3882 57.3714 56.4763 57.3909 56.5693 57.4299C56.6623 57.4689 56.7602 57.4884 56.7847 57.4738C56.8092 57.464 56.8728 57.4738 56.9316 57.5079C56.9903 57.5371 57.0981 57.5712 57.1666 57.581C57.3184 57.6005 57.4554 57.6248 57.7835 57.6979C57.9205 57.7223 58.0968 57.7564 58.1751 57.771C58.3318 57.7954 58.4836 57.8197 58.6892 57.8587C58.7577 57.8733 58.9193 57.8977 59.0564 57.9172C59.1886 57.9367 59.3648 57.9562 59.448 57.9708C59.5264 57.9805 59.6928 58.0049 59.8152 58.0195C59.9376 58.0341 60.0992 58.0536 60.1824 58.0683C60.5055 58.1121 60.7797 58.1462 61.0147 58.1657C62.4002 58.2778 62.5715 58.2875 64.2214 58.2827C65.8517 58.2827 66.4001 58.2583 67.2568 58.1657C67.3792 58.1511 67.6093 58.1267 67.7709 58.1121C67.9324 58.0926 68.1332 58.0731 68.2115 58.0634C68.2947 58.0488 68.4465 58.0293 68.5542 58.0195C68.6619 58.0049 68.8186 57.9805 68.8969 57.9659C69.0389 57.9416 69.2592 57.9123 69.5823 57.8685C69.6656 57.8587 69.783 57.8392 69.8516 57.8246C69.9201 57.81 70.0229 57.7856 70.0866 57.7759C70.1453 57.7613 70.2188 57.7369 70.253 57.7174C70.2873 57.693 70.2922 57.7028 70.2677 57.7418C70.2384 57.7905 70.253 57.7905 70.3461 57.7418C70.4097 57.7077 70.5321 57.6736 70.6104 57.6687C70.6937 57.6589 70.8112 57.6394 70.8797 57.6248C70.9482 57.6053 71.0462 57.5858 71.1 57.5761C71.1539 57.5664 71.2518 57.542 71.3203 57.5274C71.3889 57.5079 71.4868 57.4884 71.5406 57.4786C71.6386 57.4592 71.7512 57.4348 71.9715 57.3763C72.0302 57.3617 72.1232 57.3422 72.1771 57.3325C72.3827 57.2935 72.4953 57.2642 72.5443 57.235C72.5688 57.2204 72.6422 57.196 72.7009 57.1814C72.838 57.1522 72.8576 57.1473 73.1318 57.0645C73.4059 56.9816 73.4255 56.9767 73.5626 56.9475C73.6213 56.9329 73.6948 56.9085 73.7193 56.8939C73.7437 56.8793 73.8123 56.8549 73.8661 56.8403C73.92 56.8306 74.0081 56.8111 74.0571 56.8013C74.1109 56.7867 74.1991 56.7526 74.2529 56.7234C74.3117 56.6941 74.3557 56.6844 74.3557 56.6941C74.3557 56.7087 74.4536 56.6795 74.576 56.6259C74.6984 56.5723 74.7963 56.5431 74.7963 56.5577C74.7963 56.5674 74.8649 56.5479 74.9432 56.5041C75.0264 56.4602 75.0901 56.4407 75.0901 56.4554C75.0901 56.47 75.1439 56.4456 75.2125 56.4018C75.281 56.3579 75.3349 56.3335 75.3349 56.3482C75.3349 56.3628 75.4573 56.3238 75.6041 56.2604C75.751 56.1922 75.8734 56.1532 75.8734 56.1679C75.8734 56.1874 75.9273 56.163 75.9958 56.1191C76.0644 56.0753 76.1182 56.0509 76.1182 56.0607C76.1182 56.0753 76.2357 56.0314 76.3777 55.9729C76.5148 55.9096 76.6421 55.856 76.6567 55.856C76.6714 55.8511 76.8036 55.7975 76.9505 55.7342C77.0974 55.666 77.2295 55.6172 77.2442 55.6172C77.2589 55.6172 77.3226 55.588 77.3911 55.5539C77.4596 55.5149 77.5233 55.4808 77.538 55.4759C77.5527 55.4759 77.6849 55.4174 77.8317 55.3492C77.9786 55.281 78.1255 55.2177 78.15 55.2128C78.1793 55.203 78.2821 55.1446 78.385 55.0812C78.4829 55.0179 78.5661 54.9789 78.5661 54.9984C78.5661 55.013 78.6346 54.9789 78.713 54.9204C78.7962 54.8619 78.8598 54.8327 78.8598 54.8473C78.8598 54.8619 78.9284 54.8278 79.0165 54.7694C79.0997 54.706 79.1536 54.6817 79.134 54.7158C79.1144 54.745 79.1928 54.7109 79.3054 54.6378C79.418 54.5647 79.5208 54.5062 79.5404 54.5062C79.555 54.5062 79.6432 54.4526 79.7362 54.3893C79.8292 54.3211 79.888 54.2967 79.8684 54.3308C79.8439 54.3649 79.9418 54.3113 80.0789 54.2139C80.216 54.1164 80.3286 54.0482 80.3286 54.0677C80.3286 54.0823 80.4069 54.0384 80.4999 53.9654C80.593 53.8971 80.6713 53.8533 80.6713 53.8679C80.6713 53.8874 80.7447 53.8533 80.8328 53.7899C80.9161 53.7266 80.9993 53.6779 81.014 53.6779C81.0287 53.6779 81.1413 53.6048 81.2686 53.5171C81.3959 53.4342 81.5134 53.3611 81.528 53.3611C81.5476 53.3611 81.6504 53.2929 81.7533 53.2101C81.8561 53.1272 81.9442 53.0736 81.9442 53.0931C81.9442 53.1077 82.0764 53.02 82.2379 52.8982C82.3995 52.7764 82.5317 52.6887 82.5317 52.7033C82.5317 52.7228 82.6296 52.6546 82.752 52.5522C82.8744 52.4548 82.9723 52.3914 82.9723 52.4109C82.9723 52.4304 83.0849 52.3525 83.2171 52.2404C83.3542 52.1283 83.4619 52.0503 83.4619 52.0698C83.4619 52.0844 83.6479 51.9431 83.8731 51.758C84.0983 51.5679 84.2991 51.412 84.3187 51.412C84.3382 51.412 84.4998 51.2853 84.6809 51.1245C84.8572 50.9686 85.0285 50.8321 85.0628 50.8224C85.0922 50.8126 85.3272 50.608 85.5867 50.3741C85.8412 50.1402 86.0664 49.9502 86.0811 49.9599C86.1154 49.9794 88.5046 47.6015 88.5046 47.5479C88.5046 47.5235 88.7053 47.2896 88.9452 47.0313C89.19 46.7682 89.3858 46.5392 89.3858 46.5197C89.3858 46.5002 89.5718 46.2712 89.8019 46.0081C90.032 45.7449 90.2181 45.511 90.2181 45.4915C90.2181 45.4721 90.3062 45.3502 90.4139 45.2235C90.5216 45.0968 90.6097 44.975 90.6097 44.9604C90.6097 44.9409 90.7223 44.7899 90.8545 44.6193C90.9916 44.4488 91.0993 44.2928 91.0993 44.2733C91.0993 44.249 91.1777 44.1418 91.2707 44.0248C91.3637 43.9128 91.442 43.8007 91.442 43.7812C91.442 43.7617 91.4959 43.674 91.5644 43.5863C91.633 43.4986 91.6868 43.4109 91.6868 43.3962C91.6868 43.3767 91.7651 43.2549 91.8582 43.1282C91.9512 43.0015 92.0295 42.8797 92.0295 42.8602C92.0295 42.8359 92.0834 42.7482 92.1519 42.6604C92.2205 42.5727 92.2743 42.485 92.2743 42.4704C92.2743 42.4509 92.3135 42.3778 92.3673 42.3096C92.4946 42.1293 92.71 41.7444 93.1409 40.9355C93.2633 40.7064 93.4052 40.4433 93.4542 40.3507C94.0906 39.1569 95.109 36.6035 95.5545 35.0881C95.6132 34.8883 95.6818 34.669 95.7014 34.6008C95.8042 34.3182 96.2301 32.5347 96.3378 31.9451C96.3623 31.8087 96.4162 31.5163 96.4553 31.2873C96.6218 30.3956 96.8127 28.8801 96.8519 28.1541C96.8715 27.8422 96.9057 27.584 96.9302 27.584C96.9547 27.584 96.9743 26.78 96.9743 25.6836C96.9743 24.5872 96.9547 23.7832 96.9302 23.7832C96.9057 23.7832 96.8715 23.5249 96.8568 23.2082C96.8274 22.6819 96.7442 21.9315 96.6316 21.1519C96.6071 20.9765 96.563 20.65 96.5336 20.421C96.4994 20.1919 96.4455 19.8752 96.4113 19.7144C96.377 19.5536 96.3231 19.2905 96.2889 19.1297C96.2595 18.9689 96.2105 18.7398 96.1812 18.618C96.1567 18.4962 96.1224 18.3549 96.1126 18.3013C96.0783 18.1064 95.8923 17.3706 95.8287 17.1562C95.7895 17.0344 95.7356 16.8394 95.7014 16.7176C95.6035 16.357 95.3978 15.6895 95.2999 15.402C95.2461 15.2558 95.1873 15.0657 95.1628 14.9878C95.1432 14.9049 95.0355 14.6126 94.9229 14.3299C94.8152 14.0473 94.7222 13.7842 94.7222 13.7403C94.7222 13.6965 94.6879 13.6331 94.6488 13.599C94.6096 13.5649 94.5753 13.4967 94.5753 13.448C94.5753 13.3456 94.3256 12.7512 94.2718 12.7317C94.2522 12.7219 94.2326 12.6634 94.2326 12.6001C94.2326 12.5368 94.2081 12.4783 94.1788 12.4685C94.1543 12.4588 94.1249 12.4198 94.1151 12.3808C94.1053 12.3126 94.0123 12.1031 93.7969 11.6499C93.7528 11.5573 93.7039 11.4696 93.6843 11.4647C93.6598 11.455 93.6451 11.4209 93.6451 11.3916C93.6451 11.3332 93.2535 10.5243 93.2094 10.4804C93.1898 10.4658 93.0625 10.227 92.9157 9.94442C92.7688 9.6618 92.6366 9.42303 92.6219 9.40841C92.6072 9.3938 92.5583 9.31583 92.5191 9.23786C92.4799 9.15503 92.431 9.08193 92.4163 9.06731C92.3967 9.0527 92.338 8.95524 92.2792 8.84804C92.2205 8.74084 92.0932 8.53131 92.0001 8.38512C91.8043 8.07326 91.8141 8.08301 91.4812 7.59085C91.3392 7.38132 91.2021 7.17179 91.1728 7.12307C91.1483 7.07921 91.0504 6.95252 90.9671 6.84044C90.879 6.73324 90.8056 6.62604 90.8056 6.61142C90.8056 6.58218 90.3454 5.98283 90.2328 5.86101C90.1985 5.8269 90.1691 5.77817 90.1691 5.75868C90.1691 5.73431 90.1202 5.6661 90.0614 5.59788C89.9978 5.52966 89.8852 5.39322 89.8019 5.29089C89.7236 5.18856 89.6208 5.07161 89.5816 5.02776C89.5425 4.9839 89.4543 4.8767 89.3956 4.79387C89.3319 4.70615 89.2242 4.57459 89.1508 4.49662C89.0774 4.41866 88.8962 4.21887 88.7444 4.04345C88.5927 3.8729 88.3919 3.64388 88.294 3.53668C88.0982 3.31253 87.5303 2.73754 87.4128 2.64008C87.3394 2.58161 84.8719 5.02288 64.1725 25.6154Z" fill="url(#paint1_linear_153_492)"/>
</g>
<g id="Group 229">
<path id="Vector_3" d="M72.3597 3.67431C71.9583 3.78638 71.2092 4.17621 70.6903 4.54167C70.1517 4.92174 69.0502 5.96453 68.6144 6.50053C67.322 8.09881 66.9548 9.47295 67.4884 10.7399C68.0123 11.9922 69.4223 13.2689 70.6119 13.5661C71.9779 13.9072 73.5445 13.2201 75.2482 11.5244C76.0512 10.7253 76.5505 10.0723 76.9765 9.27803C77.0597 9.1221 77.1429 8.94668 77.1527 8.88821C77.1625 8.83461 77.1723 8.78588 77.1821 8.77613C77.187 8.77126 77.1968 8.74202 77.2017 8.71766C77.2066 8.68842 77.2212 8.65919 77.2261 8.64457C77.231 8.62995 77.2408 8.60559 77.2457 8.58122C77.2849 8.42529 77.3436 8.32784 77.4024 8.32784C77.4562 8.32784 77.4709 8.20114 77.4709 7.60179C77.4709 6.97807 77.4611 6.87087 77.3926 6.85625C77.3485 6.8465 77.2555 6.69057 77.1772 6.49079C76.7366 5.35542 75.4832 4.1226 74.3572 3.71816C74.0733 3.61583 73.9607 3.60121 73.3193 3.60609C72.8836 3.60609 72.5066 3.63532 72.3597 3.67431ZM73.6816 5.94991C74.1859 6.19842 74.8566 6.9001 75.0279 7.35327C75.3119 8.09881 74.9153 8.84435 73.5347 10.1698C72.5947 11.0664 72.1149 11.3538 71.547 11.3587C71.077 11.3636 70.749 11.193 70.2447 10.696C69.4174 9.86764 69.3292 9.23905 69.9118 8.36195C70.235 7.86979 71.3512 6.74905 71.9876 6.26664C72.6094 5.79885 73.1675 5.69165 73.6816 5.94991Z" fill="#F28F1F"/>
<path id="Vector_4" d="M63.136 12.0263C62.0785 13.0886 61.1239 14.068 61.0064 14.2093C60.6881 14.604 60.2965 15.2716 60.1692 15.6565C59.6649 17.1476 60.1692 18.7995 61.4519 19.8569C62.103 20.3978 63.0871 20.7535 63.934 20.7584C64.4089 20.7584 65.0307 20.6804 65.109 20.6024C65.1335 20.5781 65.1923 20.5586 65.2412 20.5586C65.3881 20.5586 66.1371 20.1882 66.4896 19.9446C66.8226 19.7107 70.6168 15.9976 70.6168 15.905C70.6168 15.8271 67.1114 12.3576 67.0478 12.3771C67.0184 12.3869 66.2644 13.1178 65.3734 14.0047L63.7529 15.6127L63.9096 16.7091C63.9977 17.3133 64.0809 17.8201 64.1005 17.8444C64.1201 17.8639 64.7223 17.2938 65.4419 16.5775L66.7491 15.2716L67.1163 15.637L67.4835 16.0074L66.3966 17.0843C65.7455 17.7226 65.2216 18.2001 65.0992 18.2635C64.5656 18.5315 63.8606 18.5705 63.3759 18.3609C63.1213 18.2537 62.6611 17.8201 62.5241 17.5618C62.4066 17.3328 62.3282 16.8309 62.3576 16.519C62.3723 16.3631 62.4408 16.0951 62.5192 15.9245C62.6416 15.6419 62.8031 15.4616 64.1397 14.1216L65.628 12.6354L65.5056 11.9288C65.3 10.7058 65.1629 10.082 65.109 10.0918C65.0846 10.0918 64.1935 10.964 63.136 12.0263Z" fill="#F28F1F"/>
<path id="Vector_5" d="M56.8449 18.3073C56.4484 18.702 56.1252 19.048 56.1252 19.0724C56.1252 19.1016 56.8449 19.8276 57.7262 20.6901L59.332 22.2641H56.1057C52.9332 22.2641 52.8744 22.2641 52.6639 22.3664C52.4142 22.4882 52.0862 22.839 52.0079 23.0778C51.9198 23.3507 51.9785 23.8282 52.1352 24.1011C52.2184 24.2473 53.1927 25.256 54.7006 26.7714C56.0371 28.1114 57.1534 29.2127 57.1778 29.2224C57.2072 29.2273 57.5597 28.9057 57.9612 28.5012L58.6906 27.7654L57.0799 26.1623L55.4643 24.5543H58.6466C60.7811 24.5543 61.8925 24.5348 62.0198 24.5007C62.1422 24.4666 62.3037 24.3545 62.4702 24.1937C62.8961 23.7649 62.9696 23.2776 62.6807 22.7318C62.6024 22.5808 61.7799 21.728 60.0908 20.0469C58.7347 18.6923 57.6087 17.5862 57.594 17.5862C57.5793 17.5862 57.2415 17.9078 56.8449 18.3073Z" fill="#F28F1F"/>
<path id="Vector_6" d="M49.7756 25.2902C49.3349 25.7287 48.9775 26.1039 48.9775 26.1332C48.9824 26.1624 50.2504 27.4586 51.7975 29.0081L54.6175 31.8295L55.4204 31.0303C55.861 30.5918 56.2233 30.2068 56.2233 30.1825C56.2233 30.1532 54.9504 28.8668 53.3935 27.3172L50.5687 24.5008L49.7756 25.2902Z" fill="#F28F1F"/>
<path id="Vector_7" d="M47.4351 28.1066C47.063 28.243 46.7741 28.3941 46.5049 28.6085C46.3727 28.7108 45.4278 29.6269 44.4046 30.6356L42.554 32.4726L42.7302 33.5934C42.8281 34.2073 42.9065 34.7775 42.9065 34.8505C42.9065 34.9285 42.9407 34.9967 42.9799 35.0162C43.0337 35.0357 43.7338 34.373 45.3543 32.765C46.6126 31.5078 47.6994 30.4553 47.7631 30.4212C47.9344 30.3237 48.0715 30.3383 48.238 30.4796C48.4632 30.6648 48.4534 30.9182 48.2086 31.1911C47.9589 31.4737 43.7926 35.5863 43.7338 35.6058C43.7094 35.6156 43.6898 35.6497 43.6898 35.6789C43.6898 35.7423 47.1168 39.1727 47.1805 39.1727C47.2392 39.1727 51.8755 34.5484 52.1497 34.2122C52.2917 34.0417 52.4973 33.7152 52.6099 33.4862C52.9428 32.7942 52.933 32.151 52.5707 31.576C52.1693 30.9523 51.5084 30.4407 50.9747 30.3578C50.7299 30.3188 50.3725 30.3481 50.1963 30.4212C50.1228 30.4504 50.118 30.4309 50.1571 30.2214C50.2452 29.7682 50.0445 29.1883 49.6626 28.7742C49.5549 28.6572 49.4766 28.55 49.4913 28.5354C49.506 28.5159 49.5011 28.511 49.4864 28.5256C49.4668 28.5354 49.3885 28.4915 49.3101 28.4282C49.2269 28.36 49.0409 28.2479 48.8891 28.1748C48.5219 27.9994 47.812 27.9653 47.4351 28.1066ZM50.255 32.4434C50.4117 32.6042 50.4362 32.7699 50.3285 32.9745C50.2893 33.0476 49.5941 33.7639 48.7863 34.5679L47.3127 36.0298L46.97 35.6887L46.6273 35.3476L48.0568 33.9198C48.845 33.1304 49.5598 32.4434 49.6382 32.3947C49.8585 32.2582 50.0837 32.2728 50.255 32.4434Z" fill="#F28F1F"/>
<path id="Vector_8" d="M39.8615 35.1622C39.4601 35.5569 39.1369 35.898 39.1369 35.9273C39.1418 35.9565 39.8419 36.6825 40.7036 37.5402L42.2654 39.0995L39.0488 39.1238L35.8323 39.1482L35.6365 39.2651C35.0049 39.6452 34.8042 40.2689 35.1126 40.8927C35.2448 41.1558 35.5875 41.5164 37.6927 43.6068C39.509 45.4146 40.1063 46.0383 40.0867 46.1017C40.072 46.1504 40.0867 46.1894 40.1161 46.1894C40.1455 46.1894 40.1553 46.165 40.1406 46.1407C40.1259 46.1114 40.1406 46.0919 40.1748 46.0919C40.263 46.0919 41.6338 44.7178 41.6338 44.6301C41.6338 44.5911 40.9239 43.8504 40.0574 42.988L38.476 41.414H41.6974C45.2224 41.414 45.0706 41.4238 45.4231 41.1217C45.8589 40.7367 45.9568 40.2153 45.6924 39.6598C45.5602 39.3723 45.3154 39.1189 43.0878 36.8921C41.7366 35.5472 40.6204 34.4459 40.6057 34.4459C40.591 34.4459 40.2581 34.7675 39.8615 35.1622Z" fill="#F28F1F"/>
<path id="Vector_9" d="M33.1884 42.8031C32.5471 42.9444 32.0967 43.154 31.3525 43.6461C30.9168 43.9336 30.6083 44.1967 29.9768 44.8253C28.4003 46.3797 27.7835 47.4956 27.7786 48.7723C27.7786 49.7517 28.1555 50.5509 29.0466 51.4475C29.5949 52.003 29.9866 52.2905 30.4957 52.5292C31.0441 52.7875 31.5092 52.8849 32.0134 52.846C32.5666 52.807 32.9142 52.7095 33.5409 52.3977C35.0341 51.6619 36.8358 49.8492 37.5457 48.3581C37.9129 47.5882 38.0206 46.7793 37.8394 46.0923C37.5212 44.8546 36.0965 43.344 34.8432 42.9103C34.3389 42.7398 33.6633 42.6959 33.1884 42.8031ZM34.241 45.1713C34.6718 45.3857 35.2495 45.9704 35.4601 46.3944C35.6069 46.6916 35.6216 46.755 35.602 47.0766C35.5727 47.6759 35.3034 48.095 34.3144 49.089C33.1248 50.2926 32.5813 50.624 31.9302 50.5557C31.5238 50.5168 31.2056 50.3316 30.7356 49.8687C29.7712 48.9136 29.8005 48.2168 30.8531 47.0327C31.3133 46.5162 31.5532 46.2774 32.0134 45.8681C32.9485 45.0349 33.5703 44.8399 34.241 45.1713Z" fill="#F28F1F"/>
<path id="Vector_10" d="M23.7739 51.1209L20.9197 53.9617L20.9344 54.4977C20.9539 55.1312 21.2036 56.5151 21.3064 56.5541C21.3456 56.5736 21.8303 56.1301 22.5206 55.4431C23.1522 54.8145 23.676 54.298 23.6858 54.2882C23.7152 54.2639 27.7052 58.279 27.7199 58.3473C27.7395 58.4399 27.9256 58.4447 27.9256 58.3521C27.9256 58.3132 28.2683 57.9574 28.6844 57.553C29.1005 57.1534 29.4432 56.7928 29.4432 56.7587C29.4432 56.7197 28.5228 55.7744 27.3919 54.6488L25.3455 52.612L26.2414 51.7251L27.1422 50.8431L27.0443 50.3315C26.9905 50.0489 26.8876 49.4739 26.8142 49.05C26.7408 48.6309 26.6673 48.2849 26.6526 48.2849C26.638 48.2849 25.3406 49.5616 23.7739 51.1209Z" fill="#F28F1F"/>
</g>
</g>
<defs>
<filter id="filter0_d_153_492" x="0.931356" y="0.512227" width="58.7016" height="58.461" filterUnits="userSpaceOnUse" color-interpolation-filters="sRGB">
<feFlood flood-opacity="0" result="BackgroundImageFix"/>
<feColorMatrix in="SourceAlpha" type="matrix" values="0 0 0 0 0 0 0 0 0 0 0 0 0 0 0 0 0 0 127 0" result="hardAlpha"/>
<feOffset dx="-0.689548" dy="-0.689548"/>
<feGaussianBlur stdDeviation="0.689548"/>
<feComposite in2="hardAlpha" operator="out"/>
<feColorMatrix type="matrix" values="0 0 0 0 0.6375 0 0 0 0 0.893382 0 0 0 0 1 0 0 0 0.8 0"/>
<feBlend mode="normal" in2="BackgroundImageFix" result="effect1_dropShadow_153_492"/>
<feBlend mode="normal" in="SourceGraphic" in2="effect1_dropShadow_153_492" result="shape"/>
</filter>
<filter id="filter1_d_153_492" x="40.3258" y="0.570455" width="58.7172" height="58.4027" filterUnits="userSpaceOnUse" color-interpolation-filters="sRGB">
<feFlood flood-opacity="0" result="BackgroundImageFix"/>
<feColorMatrix in="SourceAlpha" type="matrix" values="0 0 0 0 0 0 0 0 0 0 0 0 0 0 0 0 0 0 127 0" result="hardAlpha"/>
<feOffset dx="0.689548" dy="-0.689548"/>
<feGaussianBlur stdDeviation="0.689548"/>
<feComposite in2="hardAlpha" operator="out"/>
<feColorMatrix type="matrix" values="0 0 0 0 0.6375 0 0 0 0 0.893382 0 0 0 0 1 0 0 0 0.8 0"/>
<feBlend mode="normal" in2="BackgroundImageFix" result="effect1_dropShadow_153_492"/>
<feBlend mode="normal" in="SourceGraphic" in2="effect1_dropShadow_153_492" result="shape"/>
</filter>
<linearGradient id="paint0_linear_153_492" x1="63.6802" y1="18.4403" x2="-7.34322" y2="53.6073" gradientUnits="userSpaceOnUse">
<stop stop-color="#F28F1F"/>
<stop offset="0.4375" stop-color="#F46C20"/>
<stop offset="1" stop-color="#E1400B"/>
</linearGradient>
<linearGradient id="paint1_linear_153_492" x1="46.4417" y1="30.1627" x2="114.716" y2="39.0575" gradientUnits="userSpaceOnUse">
<stop stop-color="#F28F1F"/>
<stop offset="0.4375" stop-color="#F46C20"/>
<stop offset="1" stop-color="#E1400B"/>
</linearGradient>
</defs>
</svg>
