<svg width="40" height="40" viewBox="0 0 40 40" fill="none" xmlns="http://www.w3.org/2000/svg">
<g id="icons8-&#209;&#130;&#208;&#181;&#208;&#187;&#208;&#181;&#208;&#179;&#209;&#128;&#208;&#176;&#208;&#188; 1">
<g id="Group">
<g id="Group_2">
<path id="Vector" d="M20 6.25C27.5938 6.25 33.75 12.4062 33.75 20C33.75 27.5938 27.5938 33.75 20 33.75C12.4062 33.75 6.25 27.5938 6.25 20C6.25 12.4062 12.4062 6.25 20 6.25ZM24.7431 25.605C24.9956 24.8294 26.1813 17.0956 26.3269 15.5712C26.3713 15.11 26.225 14.8031 25.94 14.6656C25.5944 14.5 25.0831 14.5825 24.4888 14.7969C23.6744 15.0906 13.265 19.51 12.6637 19.7662C12.0937 20.0087 11.5544 20.2725 11.5544 20.6556C11.5544 20.925 11.7144 21.0763 12.1544 21.2331C12.6119 21.3962 13.765 21.7456 14.4469 21.9338C15.1031 22.115 15.8488 21.9575 16.2675 21.6975C16.7106 21.4219 21.8306 17.9969 22.1975 17.6962C22.5644 17.3962 22.8575 17.7806 22.5575 18.0813C22.2575 18.3813 18.7437 21.7919 18.28 22.2644C17.7169 22.8375 18.1163 23.4319 18.4944 23.67C18.925 23.9419 22.025 26.0206 22.4919 26.3544C22.9587 26.6881 23.4319 26.8394 23.8656 26.8394C24.2994 26.8388 24.5275 26.2675 24.7431 25.605Z" fill="white"/>
</g>
</g>
</g>
</svg>
