<svg width="36" height="36" viewBox="0 0 36 36" fill="none" xmlns="http://www.w3.org/2000/svg">
<g id="icons8-&#209;&#142;&#209;&#130;&#209;&#131;&#208;&#177; 1">
<path id="Vector" d="M18 4.5C13.4121 4.5 9.35156 4.97461 6.88184 5.34375C4.86035 5.64258 3.25195 7.22461 2.88281 9.25488C2.56641 11.0303 2.25 13.623 2.25 16.875C2.25 20.127 2.56641 22.7197 2.88281 24.4951C3.25195 26.5254 4.86035 28.0986 6.88184 28.4062C9.36035 28.7754 13.4385 29.25 18 29.25C22.5615 29.25 26.6309 28.7754 29.1094 28.4062H29.1182C31.1397 28.1074 32.748 26.5254 33.1172 24.4951C33.4336 22.7109 33.75 20.1182 33.75 16.875C33.75 13.623 33.4336 11.0303 33.1084 9.25488C32.748 7.22461 31.1397 5.64258 29.1182 5.34375C26.6484 4.97461 22.5879 4.5 18 4.5ZM18 6.75C22.4297 6.75 26.3936 7.20703 28.7842 7.56738C29.8389 7.72559 30.6914 8.55176 30.8936 9.65039C31.1924 11.3115 31.5 13.7725 31.5 16.875C31.5 19.9775 31.1924 22.4385 30.9023 24.0908C30.7002 25.1982 29.8477 26.0244 28.7842 26.1826C26.376 26.5342 22.4033 27 18 27C13.5967 27 9.61524 26.5342 7.21582 26.1826C6.16113 26.0244 5.29981 25.1982 5.09766 24.0908C4.80762 22.4297 4.5 19.9775 4.5 16.875C4.5 13.7637 4.80762 11.3115 5.09766 9.65039C5.29981 8.55176 6.15234 7.72559 7.20703 7.57617H7.21582C9.60644 7.21582 13.5703 6.75 18 6.75ZM13.5 11.25V22.5L24.75 16.875L13.5 11.25Z" fill="white"/>
</g>
</svg>
